<svg xmlns="http://www.w3.org/2000/svg" width="400" height="400" viewBox="0 0 400 400">
  <style>
    .bag { fill: #EC4899; }
    .detail { fill: #DB2777; }
    .highlight { fill: #F472B6; }
    .strap { fill: #831843; }
  </style>
  <rect x="100" y="100" width="200" height="150" rx="10" class="bag" />
  <rect x="120" y="120" width="160" height="110" rx="5" class="detail" />
  <rect x="140" y="140" width="120" height="70" rx="5" class="highlight" />
  <path d="M100 100 Q150 50 200 100" stroke="#831843" stroke-width="8" fill="none" class="strap" />
  <path d="M200 100 Q250 50 300 100" stroke="#831843" stroke-width="8" fill="none" class="strap" />
  <path d="M100 250 Q150 300 200 250" stroke="#831843" stroke-width="8" fill="none" class="strap" />
  <path d="M200 250 Q250 300 300 250" stroke="#831843" stroke-width="8" fill="none" class="strap" />
  <path d="M100 100 Q150 50 200 100" stroke="#831843" stroke-width="8" fill="none" class="strap" />
  <path d="M200 100 Q250 50 300 100" stroke="#831843" stroke-width="8" fill="none" class="strap" />
  <path d="M100 250 Q150 300 200 250" stroke="#831843" stroke-width="8" fill="none" class="strap" />
  <path d="M200 250 Q250 300 300 250" stroke="#831843" stroke-width="8" fill="none" class="strap" />
</svg> 